<?xml version="1.0" encoding="utf-8"?>
<!-- Generator: Adobe Illustrator 24.1.0, SVG Export Plug-In . SVG Version: 6.00 Build 0)  -->
<svg version="1.1" id="Layer_1" xmlns="http://www.w3.org/2000/svg" xmlns:xlink="http://www.w3.org/1999/xlink" x="0px" y="0px"
	 viewBox="0 0 400 400" style="enable-background:new 0 0 400 400;" xml:space="preserve">
<style type="text/css">
	.st0{fill:#2775CA;}
</style>
<path class="st0" d="M200,10C95.07,10,10,95.07,10,200s85.07,190,190,190s190-85.07,190-190S304.93,10,200,10z M164.38,332.11
	c0,4.45-3.56,6.98-7.72,5.64C99.06,319.34,57.5,265.61,57.5,201.93c0-63.53,41.56-117.41,99.16-135.82c4.3-1.34,7.72,1.19,7.72,5.64
	v11.13c0,2.97-2.23,6.38-5.05,7.42c-45.57,16.77-78.08,60.56-78.08,111.62c0,51.21,32.51,94.85,78.08,111.48
	c2.82,1.04,5.05,4.45,5.05,7.42V332.11z M212.02,290.99h-0.15c0,3.27-2.67,5.94-5.94,5.94h-11.88c-3.27,0-5.94-2.67-5.94-5.94v-18.7
	c-25.98-3.56-38.59-17.96-42.01-37.85c-0.59-3.41,2.08-6.38,5.49-6.38h13.51c2.82,0,5.2,2.08,5.79,4.75
	c2.52,11.73,9.35,20.78,30.13,20.78c15.29,0,26.27-8.61,26.27-21.37c0-12.77-6.38-17.66-28.95-21.38
	c-33.25-4.45-48.98-14.55-48.98-40.52c0-20.04,15.29-35.77,38.74-39.04v-18.41c0-3.27,2.67-5.94,5.94-5.94h11.88
	c3.27,0,5.94,2.67,5.94,5.94v18.85c19.15,3.41,31.32,14.25,35.33,32.36c0.74,3.41-1.93,6.53-5.49,6.53h-12.47
	c-2.67,0-4.9-1.78-5.64-4.3c-3.41-11.43-11.58-16.48-25.83-16.48c-15.73,0-23.9,7.57-23.9,18.26c0,11.28,4.6,16.92,28.8,20.34
	c32.66,4.45,49.58,13.8,49.58,41.56c0,21.08-15.73,38.15-40.23,42.01V290.99z M243.34,337.75c-4.3,1.34-7.72-1.19-7.72-5.64v-11.13
	c0-3.27,1.93-6.38,5.05-7.42c45.42-16.63,78.08-60.41,78.08-111.48c0-51.21-32.51-94.85-78.08-111.48
	c-2.82-1.04-5.05-4.45-5.05-7.42V72.05c0-4.45,3.56-6.98,7.72-5.64c57.59,18.11,99.16,71.99,99.16,135.52
	C342.5,265.61,300.94,319.34,243.34,337.75z"/>
</svg>
