<?xml version="1.0" encoding="utf-8"?>
<!-- Generator: Adobe Illustrator 24.1.0, SVG Export Plug-In . SVG Version: 6.00 Build 0)  -->
<svg version="1.1" id="Layer_1" xmlns="http://www.w3.org/2000/svg" xmlns:xlink="http://www.w3.org/1999/xlink" x="0px" y="0px"
	 viewBox="0 0 400 400" style="enable-background:new 0 0 400 400;" xml:space="preserve">
<style type="text/css">
	.st0{fill:#50AF95;}
</style>
<g>
	<path class="st0" d="M382.72,155.48c-19.43-41.14-38.81-82.28-58.18-123.45c-0.52-1.09-0.82-2.24-1.21-3.37
		c-82.22,0-164.44,0-246.65,0c-21.28,45.2-42.56,90.4-63.88,135.58c-2.64,5.55-5.43,11-8.16,16.49c0,0.49,0,0.97,0,1.46
		c41.26,40.14,82.55,80.28,123.84,120.36c22.68,22.04,45.38,44.05,68.09,66.09c0.85,0.82,1.58,1.79,2.33,2.7c0.49,0,0.97,0,1.46,0
		c11.16-10.91,22.28-21.86,33.47-32.74c15.64-15.19,31.32-30.32,46.96-45.51c35.99-34.89,71.97-69.79,107.99-104.71
		c2.15-2.09,4.4-4.12,6.58-6.18c0-0.24,0-0.48,0-0.73C391.15,172.82,386.84,164.18,382.72,155.48z M320.02,185.13
		c-7.03,5.43-15.4,8-23.83,10.19c-21.04,5.52-42.56,7.79-64.24,9c-1.46,0.06-2.88,0.27-4.61,0.45c0,31.77,0,63.36,0,95.13
		c0,0.01,0,0.02,0,0.03c-16.64,0-32.92,0-49.57,0c0-0.01,0-0.02,0-0.03c0-31.73,0-63.31,0-95.07c-9.13-0.76-17.92-1.3-26.68-2.24
		c-18.89-2.03-37.71-4.55-55.51-11.67c-4.3-1.73-8.46-4.24-12.04-7.18c-2.32-1.91-3.47-4.18-3.4-6.42c0.05-2.24,1.32-4.44,3.83-6.22
		c4.85-3.46,10.31-6.4,15.92-8.37c15.46-5.46,31.62-7.91,47.87-9.64c9.85-1.03,19.74-1.73,29.8-2.61c0-9.48,0-18.99,0-28.98
		c-22.59,0-45.2,0-68,0c0-0.01,0-0.02,0-0.03c0-15.54,0-30.63,0-45.93c0-0.01,0-0.02,0-0.03c61.88,0,123.66,0,185.78,0
		c0,0.01,0,0.02,0,0.03c0,15.09,0,30.27,0,45.81c0,0.01,0,0.02,0,0.03c-22.56,0-45.05,0-67.76,0c0,9.9,0,19.41,0,29.26
		c4.58,0.3,9.25,0.58,13.92,0.97c22.07,1.82,44.08,4.21,65.12,11.76c4.82,1.73,9.52,4.27,13.67,7.28c2.92,2.1,4.3,4.59,4.23,7.12
		C324.46,180.3,322.94,182.88,320.02,185.13z"/>
	<path class="st0" d="M177.54,154.51c0,11.37,0,22.22,0,33.65c16.67,0,32.95,0,49.69,0c0-11.25,0-22.19,0-33.59
		c7.67,0.52,14.89,0.85,22.04,1.55c15.52,1.55,31.07,3.33,46.02,8.03c4.67,1.49,9.28,3.55,13.46,6.06c4.94,2.97,4.79,7,0,10.31
		c-7.22,5-15.64,6.97-24.04,8.76c-21.13,4.49-42.59,6.73-64.18,6.73c-21.8,0-43.6-0.45-65.33-1.7c-17.01-0.97-33.92-3.52-50.14-9.28
		c-3.03-1.09-6.06-2.52-8.76-4.27c-5.15-3.37-5.24-7.64,0.03-10.79c4.09-2.46,8.61-4.4,13.19-5.82c15.22-4.73,30.95-6.58,46.75-8.06
		C163.14,155.45,170.02,155.06,177.54,154.51z"/>
</g>
</svg>
